<svg width="431" height="438" viewBox="0 0 431 438" fill="none" xmlns="http://www.w3.org/2000/svg">
<path d="M301.5 78.8684C340.559 79.0859 347.546 80.818 361.345 94.6168C377.125 110.396 377.125 135.793 377.125 186.587V294.337C377.125 345.13 377.125 370.529 361.345 386.307C345.565 402.087 320.168 402.087 269.375 402.087H161.625C110.831 402.087 85.4343 402.087 69.6546 386.307C53.875 370.529 53.875 345.13 53.875 294.337V186.587C53.875 135.793 53.875 110.396 69.6546 94.6168C83.4535 80.818 90.4401 79.0859 129.5 78.8684" stroke="#1C274C" stroke-opacity="0.08" stroke-width="30"/>
<path d="M188.562 258.417H305.292" stroke="#1C274C" stroke-opacity="0.08" stroke-width="30" stroke-linecap="round"/>
<path d="M125.708 258.417H134.688" stroke="#1C274C" stroke-opacity="0.08" stroke-width="30" stroke-linecap="round"/>
<path d="M125.708 195.562H134.688" stroke="#1C274C" stroke-opacity="0.08" stroke-width="30" stroke-linecap="round"/>
<path d="M125.708 321.271H134.688" stroke="#1C274C" stroke-opacity="0.08" stroke-width="30" stroke-linecap="round"/>
<path d="M188.562 195.562H305.292" stroke="#1C274C" stroke-opacity="0.08" stroke-width="30" stroke-linecap="round"/>
<path d="M188.562 321.271H305.292" stroke="#1C274C" stroke-opacity="0.08" stroke-width="30" stroke-linecap="round"/>
<path d="M143.667 69.8542C143.667 54.977 155.727 42.9167 170.604 42.9167H260.396C275.272 42.9167 287.333 54.977 287.333 69.8542V87.8126C287.333 102.69 275.272 114.75 260.396 114.75H170.604C155.727 114.75 143.667 102.69 143.667 87.8126V69.8542Z" stroke="#1C274C" stroke-opacity="0.08" stroke-width="30"/>
</svg>
