<svg width="1205" height="749" viewBox="0 0 1205 749" fill="none" xmlns="http://www.w3.org/2000/svg">
<g filter="url(#filter0_d_6_64)">
<path d="M1142.56 480.256L1180.31 486.835L1194.59 372.802L1180.31 278.505L1155.82 259.865L1136.43 151.314L985.426 138.156L839.521 151.314L809.931 120.612L761.976 131.577L722.184 75.6568L674.229 151.314L698.716 172.147V194.076L681.371 178.725L655.863 218.199L681.371 242.321L611.989 308.11V259.865L580.359 218.199L548.729 242.321L534.445 218.199L463.022 248.9L444.657 218.199H389.559V163.375H416.088V120.612L485.469 49.3414L479.347 5.48238L454.86 0L309.974 57.0167L298.751 86.6216L194.678 151.314L84.4834 99.7793L31.4267 218.199L52.8535 242.321L10 278.505V308.11L37.5487 327.846L31.4267 372.802L72.2395 410.082L18.1626 505.475L58.9754 551.527L128.357 527.405L149.784 573.457H212.023L222.227 551.527L239.572 558.106L454.86 390.345L534.445 463.809L470.165 510.958L485.469 546.045L422.209 623.895H485.469V684.201L534.445 728.06L648.721 666.657L641.578 649.114L661.985 600.869H698.716L706.879 573.457L752.793 578.939L761.976 558.106L832.378 573.457L971.142 520.826L985.426 451.748L1003.79 463.809L1055.83 436.397H1108.89L1142.56 480.256Z" fill="#D2D2D2"/>
</g>
<path d="M900.621 393.271C900.621 397.51 897.423 400.946 893.479 400.946C889.534 400.946 886.337 397.51 886.337 393.271C886.337 389.032 889.534 385.595 893.479 385.595C897.423 385.595 900.621 389.032 900.621 393.271Z" fill="#BD5353"/>
<path d="M774.55 379.31C775.479 379.31 776.556 379.431 777.782 379.672C779.009 379.913 779.907 380.17 780.476 380.444V385.848H777.603C777.05 384.705 776.399 383.87 775.65 383.339C774.917 382.808 774.115 382.543 773.248 382.543C772.516 382.543 771.842 382.808 771.228 383.339C770.63 383.854 770.151 384.569 769.791 385.486C769.446 386.402 769.275 387.424 769.275 388.549C769.275 389.819 769.455 390.986 769.814 392.047C770.173 393.093 770.72 393.929 771.452 394.556C772.185 395.183 773.091 395.497 774.169 395.497C775.591 395.497 777.595 394.821 780.184 393.47L781.217 395.255L777.087 398.705C776.368 398.931 775.681 399.075 775.022 399.139C774.379 399.203 773.675 399.236 772.911 399.236C771.161 399.236 769.612 398.825 768.265 398.005C766.918 397.185 765.871 396.06 765.122 394.628C764.373 393.181 764 391.541 764 389.707C764 387.826 764.553 386.089 765.661 384.497C766.783 382.889 768.167 381.626 769.814 380.71C771.475 379.778 773.054 379.31 774.55 379.31ZM796.36 398.753H790.749V396.654L788.212 398.801C787.914 398.931 787.539 398.994 787.09 398.994C785.563 398.994 784.457 398.6 783.768 397.812C783.094 397.008 782.758 396.043 782.758 394.918C782.758 394.275 782.931 393.648 783.274 393.036C783.619 392.409 784.121 391.83 784.778 391.299H790.749C790.704 390.591 790.479 390.06 790.075 389.707C789.671 389.337 789.163 389.152 788.549 389.152C787.516 389.152 786.006 389.49 784.015 390.166L783.341 388.525L786.416 385.872C787.241 385.567 788.229 385.413 789.379 385.413C791.236 385.413 792.679 385.856 793.712 386.74C794.744 387.609 795.261 388.887 795.261 390.576V395.979L797.258 396.823L796.36 398.753ZM788.459 395.014C789.118 395.014 789.881 394.74 790.749 394.194V393.253H787.337C787.263 393.398 787.21 393.527 787.18 393.639C787.151 393.736 787.135 393.865 787.135 394.025C787.135 394.33 787.247 394.571 787.471 394.749C787.712 394.926 788.049 395.014 788.482 395.014H788.459ZM820.209 398.753H814.598V390.817C814.598 390.286 814.522 389.916 814.373 389.707C814.224 389.499 813.955 389.394 813.565 389.394C812.996 389.394 812.435 389.554 811.882 389.876V396.196L813.677 396.823L812.78 398.753H807.392V390.817C807.392 390.286 807.317 389.916 807.168 389.707C807.019 389.499 806.749 389.394 806.36 389.394C805.79 389.394 805.229 389.554 804.676 389.876V396.196L806.472 396.823L805.574 398.753H798.189V397.04L800.187 395.159V390.455L798.189 389.056V387.343L803.374 385.196L804.317 387.802L806.853 385.606C807.182 385.477 807.594 385.413 808.088 385.413C808.972 385.413 809.719 385.615 810.333 386.016C810.947 386.402 811.38 386.957 811.635 387.681L814.037 385.606C814.365 385.477 814.777 385.413 815.271 385.413C816.424 385.413 817.336 385.751 818.01 386.427C818.697 387.087 819.042 387.986 819.042 389.128V396.148L821.107 396.823L820.209 398.753ZM829.762 398.994C829.284 398.994 828.841 398.874 828.437 398.633V402.01L832.029 402.95L831.131 404.88H821.95V403.168L823.948 401.286V390.455L821.95 389.056V387.343L827.135 385.196L828.078 387.826L830.637 385.606C831.117 385.477 831.664 385.413 832.276 385.413C833.263 385.413 834.147 385.694 834.925 386.258C835.718 386.804 836.333 387.569 836.765 388.549C837.214 389.514 837.439 390.591 837.439 391.782C837.439 393.069 837.043 394.266 836.249 395.376C835.457 396.486 834.461 397.369 833.263 398.029C832.068 398.672 830.906 398.994 829.784 398.994H829.762ZM830.705 389.369C829.896 389.369 829.133 389.547 828.415 389.9V393.398C828.415 394.073 828.648 394.637 829.111 395.087C829.576 395.536 830.227 395.762 831.064 395.762C832.157 395.762 832.702 394.812 832.702 392.915C832.702 391.869 832.539 391.019 832.208 390.359C831.88 389.698 831.386 389.369 830.727 389.369H830.705ZM846.746 398.753H839.136V397.04L841.134 395.159V390.455L839.136 389.056V387.343L843.873 385.196H845.624V396.148L847.644 396.823L846.746 398.753ZM843.401 377.887C844.15 377.887 844.765 378.137 845.242 378.635C845.736 379.133 845.983 379.753 845.983 380.492C845.983 381.008 845.803 381.49 845.444 381.94C845.101 382.389 844.667 382.751 844.142 383.025C843.62 383.299 843.11 383.435 842.616 383.435C841.883 383.435 841.269 383.185 840.775 382.688C840.281 382.19 840.034 381.578 840.034 380.854C840.034 380.339 840.208 379.856 840.551 379.407C840.91 378.94 841.353 378.571 841.875 378.297C842.399 378.023 842.908 377.887 843.401 377.887ZM863.783 398.729H858.172V391.275C858.172 390.584 858.074 390.093 857.88 389.804C857.7 389.514 857.378 389.369 856.914 389.369C856.27 389.369 855.641 389.538 855.029 389.876V396.148L857.049 396.823L856.151 398.753H848.542V397.04L850.54 395.159V390.455L848.542 389.056V387.343L853.727 385.196L854.67 387.802L857.206 385.606C857.61 385.477 858.096 385.413 858.665 385.413C859.892 385.413 860.865 385.751 861.583 386.427C862.302 387.087 862.661 387.986 862.661 389.128V396.148L864.681 396.799L863.783 398.729ZM879.266 398.753H873.654V396.654L871.117 398.801C870.819 398.931 870.444 398.994 869.995 398.994C868.469 398.994 867.363 398.6 866.673 397.812C865.999 397.008 865.663 396.043 865.663 394.918C865.663 394.275 865.836 393.648 866.179 393.036C866.524 392.409 867.026 391.83 867.683 391.299H873.654C873.609 390.591 873.384 390.06 872.98 389.707C872.576 389.337 872.068 389.152 871.454 389.152C870.421 389.152 868.911 389.49 866.92 390.166L866.246 388.525L869.322 385.872C870.146 385.567 871.134 385.413 872.285 385.413C874.142 385.413 875.584 385.856 876.617 386.74C877.649 387.609 878.166 388.887 878.166 390.576V395.979L880.164 396.823L879.266 398.753ZM871.364 395.014C872.023 395.014 872.787 394.74 873.654 394.194V393.253H870.242C870.168 393.398 870.115 393.527 870.085 393.639C870.056 393.736 870.04 393.865 870.04 394.025C870.04 394.33 870.152 394.571 870.377 394.749C870.617 394.926 870.954 395.014 871.387 395.014H871.364Z" fill="#3A4A70"/>
<path d="M781.733 422.775L782.339 424.463L778.209 427.189C777.415 427.415 776.652 427.56 775.919 427.623C775.201 427.687 774.424 427.72 773.585 427.72C771.699 427.72 770.03 427.31 768.579 426.49C767.128 425.669 765.998 424.544 765.19 423.112C764.396 421.665 764 420.025 764 418.191C764 416.31 764.592 414.573 765.773 412.981C766.971 411.374 768.445 410.11 770.195 409.194C771.961 408.262 773.638 407.795 775.224 407.795C776.211 407.795 777.364 407.915 778.68 408.157C780.013 408.398 780.984 408.654 781.599 408.928V415.297H778.725C778.111 413.817 777.393 412.74 776.57 412.064C775.762 411.374 774.879 411.027 773.922 411.027C773.069 411.027 772.283 411.292 771.565 411.823C770.861 412.339 770.299 413.053 769.881 413.97C769.477 414.887 769.275 415.909 769.275 417.034C769.275 418.4 769.477 419.648 769.881 420.773C770.285 421.882 770.906 422.775 771.744 423.45C772.583 424.126 773.616 424.463 774.842 424.463H775.538C776.121 424.463 776.579 424.448 776.907 424.415V420.29L773.226 419.398L774.124 417.468H783.866V419.181L781.733 421.183V422.775ZM792.912 417.902C792.491 417.902 792.087 418.047 791.7 418.336V424.391L795.291 425.332L794.393 427.262H785.212V425.549L787.21 423.667V418.963L785.212 417.564V415.852L790.398 413.705L791.296 416.213L793.204 414.115C793.473 413.985 793.81 413.922 794.214 413.922C795.185 413.922 796.001 414.139 796.66 414.573C797.318 415.007 797.766 415.61 798.007 416.382L795.471 419.808H793.72C793.72 419.117 793.659 418.626 793.54 418.336C793.42 418.047 793.21 417.902 792.912 417.902ZM811.904 427.262H806.292V425.163L803.756 427.31C803.456 427.439 803.082 427.503 802.633 427.503C801.107 427.503 799.999 427.108 799.311 426.321C798.638 425.516 798.301 424.551 798.301 423.426C798.301 422.784 798.473 422.156 798.817 421.545C799.16 420.917 799.662 420.338 800.321 419.808H806.292C806.247 419.099 806.023 418.569 805.619 418.216C805.215 417.845 804.705 417.661 804.092 417.661C803.06 417.661 801.548 417.999 799.558 418.674L798.885 417.034L801.96 414.38C802.782 414.075 803.77 413.922 804.923 413.922C806.778 413.922 808.223 414.365 809.255 415.249C810.288 416.117 810.804 417.395 810.804 419.084V424.487L812.802 425.332L811.904 427.262ZM804.003 423.523C804.66 423.523 805.423 423.248 806.292 422.702V421.762H802.88C802.805 421.906 802.752 422.036 802.723 422.148C802.693 422.244 802.678 422.373 802.678 422.534C802.678 422.838 802.791 423.08 803.015 423.257C803.254 423.435 803.59 423.523 804.025 423.523H804.003ZM828.972 427.237H823.36V419.784C823.36 419.093 823.262 418.602 823.068 418.312C822.889 418.023 822.566 417.878 822.103 417.878C821.46 417.878 820.832 418.047 820.218 418.384V424.656L822.238 425.332L821.34 427.262H813.73V425.549L815.728 423.667V418.963L813.73 417.564V415.852L818.916 413.705L819.858 416.31L822.395 414.115C822.799 413.985 823.285 413.922 823.854 413.922C825.081 413.922 826.054 414.26 826.772 414.935C827.49 415.595 827.85 416.494 827.85 417.637V424.656L829.87 425.308L828.972 427.237ZM845.471 427.262H839.859V425.428L837.681 427.31C837.204 427.439 836.657 427.503 836.043 427.503C835.055 427.503 834.165 427.229 833.372 426.683C832.594 426.119 831.98 425.356 831.531 424.391C831.098 423.411 830.88 422.325 830.88 421.134C830.88 419.847 831.278 418.65 832.07 417.54C832.864 416.431 833.859 415.553 835.055 414.911C836.253 414.251 837.412 413.922 838.534 413.922C839 413.922 839.44 414.034 839.859 414.26V411.461L837.861 410.062V408.35L842.597 406.203H844.348V424.656L846.368 425.332L845.471 427.262ZM837.592 423.547C838.4 423.547 839.163 423.369 839.881 423.016V418.963C839.791 418.433 839.522 417.999 839.073 417.661C838.624 417.323 838.012 417.154 837.233 417.154C836.141 417.154 835.594 418.104 835.594 420.001C835.594 421.047 835.759 421.898 836.088 422.558C836.418 423.218 836.912 423.547 837.569 423.547H837.592ZM855.239 413.922C856.9 413.922 858.186 414.588 859.1 415.924C860.012 417.259 860.447 419.156 860.402 421.617H852.478C852.658 422.356 852.956 422.944 853.376 423.378C853.794 423.797 854.325 424.005 854.97 424.005C856.031 424.005 857.618 423.586 859.729 422.751L860.402 424.391L857.327 427.044C856.308 427.349 855.088 427.503 853.668 427.503C852.501 427.503 851.452 427.229 850.525 426.683C849.611 426.119 848.893 425.356 848.37 424.391C847.86 423.411 847.607 422.325 847.607 421.134C847.607 419.847 848.003 418.65 848.797 417.54C849.589 416.431 850.584 415.553 851.782 414.911C852.978 414.251 854.139 413.922 855.262 413.922H855.239ZM854.049 417.154C853.494 417.154 853.076 417.363 852.792 417.781C852.507 418.183 852.35 418.81 852.321 419.663H856.025C855.949 418.81 855.755 418.183 855.441 417.781C855.127 417.363 854.655 417.154 854.027 417.154H854.049Z" fill="#3A4A70"/>
<path d="M877.154 349.412H907.763L892.458 380.113L877.154 349.412Z" fill="#BD5353"/>
<path d="M892.458 359.28C902.038 359.28 909.804 350.935 909.804 340.64C909.804 330.345 902.038 322 892.458 322C882.879 322 875.113 330.345 875.113 340.64C875.113 350.935 882.879 359.28 892.458 359.28Z" fill="#BD5353"/>
<path d="M901.641 340.64C901.641 346.089 897.529 350.508 892.458 350.508C887.387 350.508 883.275 346.089 883.275 340.64C883.275 335.19 887.387 330.771 892.458 330.771C897.529 330.771 901.641 335.19 901.641 340.64Z" fill="#D2D2D2"/>
<defs>
<filter id="filter0_d_6_64" x="0" y="0" width="1204.59" height="748.06" filterUnits="userSpaceOnUse" color-interpolation-filters="sRGB">
<feFlood flood-opacity="0" result="BackgroundImageFix"/>
<feColorMatrix in="SourceAlpha" type="matrix" values="0 0 0 0 0 0 0 0 0 0 0 0 0 0 0 0 0 0 127 0" result="hardAlpha"/>
<feOffset dy="10"/>
<feGaussianBlur stdDeviation="5"/>
<feComposite in2="hardAlpha" operator="out"/>
<feColorMatrix type="matrix" values="0 0 0 0 0 0 0 0 0 0 0 0 0 0 0 0 0 0 0.3 0"/>
<feBlend mode="normal" in2="BackgroundImageFix" result="effect1_dropShadow_6_64"/>
<feBlend mode="normal" in="SourceGraphic" in2="effect1_dropShadow_6_64" result="shape"/>
</filter>
</defs>
</svg>
