<svg width="781" height="566" viewBox="0 0 781 566" fill="none" xmlns="http://www.w3.org/2000/svg">
<path d="M95.5 1L1.5 62L390.5 282.5L779.5 60L681 3L388.5 169L95.5 1Z" fill="#11203C" stroke="black"/>
<path d="M102 234.5L101.5 564.5L388 395L102 234.5Z" fill="#D7DAE0" stroke="black"/>
<path d="M677 234.5L677.5 564.5L391 395L677 234.5Z" fill="#D7DAE0" stroke="black"/>
<path d="M392.497 284.791L780 62.8626V507.208L679.999 563.644L679.5 230.999L679.499 230.147L678.755 230.564L391.508 391.642L392.497 284.791Z" fill="#4B76B1" stroke="black"/>
<path d="M1 64V508.5L99.5 564.5L100 231L388.5 392.5L389 284.5L1 64Z" fill="#A1B9E6" stroke="black"/>
</svg>
