<svg width="193" height="48" fill="none" xmlns="http://www.w3.org/2000/svg">
<g clip-path="url(#a)">
<path d="M181 23v25h6V23h6v-6h-6V8h-6v9h-6v6h6ZM151 48h20v-6h-18a3 3 0 0 1-3-3v-4h21V24a7 7 0 0 0-7-7h-13a7 7 0 0 0-7 7v17a7 7 0 0 0 7 7ZM66 48V0h6v17h15a7 7 0 0 1 7 7v17a7 7 0 0 1-7 7H66ZM0 48V0h6v42h25v6H0ZM55 17H36v6h17a3 3 0 0 1 3 3v3H42a7 7 0 0 0-7 7v5a7 7 0 0 0 7 7h20V24a7 7 0 0 0-7-7Z" fill="#31446A"/>
<path d="M56 42H44a3 3 0 0 1-3-3v-1a3 3 0 0 1 3-3h12v7ZM72 23v19h13a3 3 0 0 0 3-3V26a3 3 0 0 0-3-3H72ZM165 29h-15v-3a3 3 0 0 1 3-3h9a3 3 0 0 1 3 3v3Z" fill="#fff"/>
<path d="M98 0v48h6V18.5L116 48h6l12-29.5V48h6V0h-6l-15 38.5L104 0h-6Z" fill="#31446A"/>
</g>
<defs>
<clipPath id="a">
<path fill="#fff" d="M0 0h193v48H0z"/>
</clipPath>
</defs>
</svg>