<svg width="581" height="332" viewBox="0 0 581 332" fill="none" xmlns="http://www.w3.org/2000/svg">
<path d="M555 219L573.5 222L580.5 170L573.5 127L561.5 118.5L552 69L478 63L406.5 69L392 55L368.5 60L349 34.5L325.5 69L337.5 78.5V88.5L329 81.5L316.5 99.5L329 110.5L295 140.5V118.5L279.5 99.5L264 110.5L257 99.5L222 113.5L213 99.5H186V74.5H199V55L233 22.5L230 2.5L218 0L147 26L141.5 39.5L90.5 69L36.5 45.5L10.5 99.5L21 110.5L0 127V140.5L13.5 149.5L10.5 170L30.5 187L4 230.5L24 251.5L58 240.5L68.5 261.5H99L104 251.5L112.5 254.5L218 178L257 211.5L225.5 233L233 249L202 284.5H233V312L257 332L313 304L309.5 296L319.5 274H337.5L341.5 261.5L364 264L368.5 254.5L403 261.5L471 237.5L478 206L487 211.5L512.5 199H538.5L555 219Z" fill="#5191c1"/>
<path d="M424.5 178.5C424.5 180.433 422.933 182 421 182C419.067 182 417.5 180.433 417.5 178.5C417.5 176.567 419.067 175 421 175C422.933 175 424.5 176.567 424.5 178.5Z" fill="#ff0000"/>
<path d="M362.72 172.134C363.175 172.134 363.703 172.189 364.304 172.299C364.905 172.409 365.345 172.526 365.624 172.651V175.115H364.216C363.945 174.594 363.626 174.213 363.259 173.971C362.9 173.729 362.507 173.608 362.082 173.608C361.723 173.608 361.393 173.729 361.092 173.971C360.799 174.206 360.564 174.532 360.388 174.95C360.219 175.368 360.135 175.834 360.135 176.347C360.135 176.926 360.223 177.458 360.399 177.942C360.575 178.419 360.843 178.8 361.202 179.086C361.561 179.372 362.005 179.515 362.533 179.515C363.23 179.515 364.212 179.207 365.481 178.591L365.987 179.405L363.963 180.978C363.611 181.081 363.274 181.147 362.951 181.176C362.636 181.205 362.291 181.22 361.917 181.22C361.059 181.22 360.3 181.033 359.64 180.659C358.98 180.285 358.467 179.772 358.1 179.119C357.733 178.459 357.55 177.711 357.55 176.875C357.55 176.017 357.821 175.225 358.364 174.499C358.914 173.766 359.592 173.19 360.399 172.772C361.213 172.347 361.987 172.134 362.72 172.134ZM373.408 181H370.658V180.043L369.415 181.022C369.269 181.081 369.085 181.11 368.865 181.11C368.117 181.11 367.575 180.93 367.237 180.571C366.907 180.204 366.742 179.764 366.742 179.251C366.742 178.958 366.827 178.672 366.995 178.393C367.164 178.107 367.41 177.843 367.732 177.601H370.658C370.636 177.278 370.526 177.036 370.328 176.875C370.13 176.706 369.881 176.622 369.58 176.622C369.074 176.622 368.334 176.776 367.358 177.084L367.028 176.336L368.535 175.126C368.939 174.987 369.423 174.917 369.987 174.917C370.897 174.917 371.604 175.119 372.11 175.522C372.616 175.918 372.869 176.501 372.869 177.271V179.735L373.848 180.12L373.408 181ZM369.536 179.295C369.859 179.295 370.233 179.17 370.658 178.921V178.492H368.986C368.95 178.558 368.924 178.617 368.909 178.668C368.895 178.712 368.887 178.771 368.887 178.844C368.887 178.983 368.942 179.093 369.052 179.174C369.17 179.255 369.335 179.295 369.547 179.295H369.536ZM385.095 181H382.345V177.381C382.345 177.139 382.308 176.97 382.235 176.875C382.162 176.78 382.03 176.732 381.839 176.732C381.56 176.732 381.285 176.805 381.014 176.952V179.834L381.894 180.12L381.454 181H378.814V177.381C378.814 177.139 378.777 176.97 378.704 176.875C378.631 176.78 378.499 176.732 378.308 176.732C378.029 176.732 377.754 176.805 377.483 176.952V179.834L378.363 180.12L377.923 181H374.304V180.219L375.283 179.361V177.216L374.304 176.578V175.797L376.845 174.818L377.307 176.006L378.55 175.005C378.711 174.946 378.913 174.917 379.155 174.917C379.588 174.917 379.954 175.009 380.255 175.192C380.556 175.368 380.768 175.621 380.893 175.951L382.07 175.005C382.231 174.946 382.433 174.917 382.675 174.917C383.24 174.917 383.687 175.071 384.017 175.379C384.354 175.68 384.523 176.09 384.523 176.611V179.812L385.535 180.12L385.095 181ZM389.776 181.11C389.542 181.11 389.325 181.055 389.127 180.945V182.485L390.887 182.914L390.447 183.794H385.948V183.013L386.927 182.155V177.216L385.948 176.578V175.797L388.489 174.818L388.951 176.017L390.205 175.005C390.44 174.946 390.708 174.917 391.008 174.917C391.492 174.917 391.925 175.045 392.306 175.302C392.695 175.551 392.996 175.9 393.208 176.347C393.428 176.787 393.538 177.278 393.538 177.821C393.538 178.408 393.344 178.954 392.955 179.46C392.567 179.966 392.079 180.369 391.492 180.67C390.906 180.963 390.337 181.11 389.787 181.11H389.776ZM390.238 176.721C389.842 176.721 389.468 176.802 389.116 176.963V178.558C389.116 178.866 389.23 179.123 389.457 179.328C389.685 179.533 390.004 179.636 390.414 179.636C390.95 179.636 391.217 179.203 391.217 178.338C391.217 177.861 391.137 177.473 390.975 177.172C390.814 176.871 390.572 176.721 390.249 176.721H390.238ZM398.099 181H394.37V180.219L395.349 179.361V177.216L394.37 176.578V175.797L396.691 174.818H397.549V179.812L398.539 180.12L398.099 181ZM396.46 171.485C396.827 171.485 397.128 171.599 397.362 171.826C397.604 172.053 397.725 172.336 397.725 172.673C397.725 172.908 397.637 173.128 397.461 173.333C397.293 173.538 397.08 173.703 396.823 173.828C396.567 173.953 396.317 174.015 396.075 174.015C395.716 174.015 395.415 173.901 395.173 173.674C394.931 173.447 394.81 173.168 394.81 172.838C394.81 172.603 394.895 172.383 395.063 172.178C395.239 171.965 395.456 171.797 395.712 171.672C395.969 171.547 396.218 171.485 396.46 171.485ZM406.448 180.989H403.698V177.59C403.698 177.275 403.65 177.051 403.555 176.919C403.467 176.787 403.309 176.721 403.082 176.721C402.766 176.721 402.458 176.798 402.158 176.952V179.812L403.148 180.12L402.708 181H398.979V180.219L399.958 179.361V177.216L398.979 176.578V175.797L401.52 174.818L401.982 176.006L403.225 175.005C403.423 174.946 403.661 174.917 403.94 174.917C404.541 174.917 405.018 175.071 405.37 175.379C405.722 175.68 405.898 176.09 405.898 176.611V179.812L406.888 180.109L406.448 180.989ZM414.035 181H411.285V180.043L410.042 181.022C409.896 181.081 409.712 181.11 409.492 181.11C408.744 181.11 408.202 180.93 407.864 180.571C407.534 180.204 407.369 179.764 407.369 179.251C407.369 178.958 407.454 178.672 407.622 178.393C407.791 178.107 408.037 177.843 408.359 177.601H411.285C411.263 177.278 411.153 177.036 410.955 176.875C410.757 176.706 410.508 176.622 410.207 176.622C409.701 176.622 408.961 176.776 407.985 177.084L407.655 176.336L409.162 175.126C409.566 174.987 410.05 174.917 410.614 174.917C411.524 174.917 412.231 175.119 412.737 175.522C413.243 175.918 413.496 176.501 413.496 177.271V179.735L414.475 180.12L414.035 181ZM410.163 179.295C410.486 179.295 410.86 179.17 411.285 178.921V178.492H409.613C409.577 178.558 409.551 178.617 409.536 178.668C409.522 178.712 409.514 178.771 409.514 178.844C409.514 178.983 409.569 179.093 409.679 179.174C409.797 179.255 409.962 179.295 410.174 179.295H410.163Z" fill="#18294d"/>
<path d="M366.24 191.954L366.537 192.724L364.513 193.967C364.124 194.07 363.75 194.136 363.391 194.165C363.039 194.194 362.658 194.209 362.247 194.209C361.323 194.209 360.505 194.022 359.794 193.648C359.083 193.274 358.529 192.761 358.133 192.108C357.744 191.448 357.55 190.7 357.55 189.864C357.55 189.006 357.84 188.214 358.419 187.488C359.006 186.755 359.728 186.179 360.586 185.761C361.451 185.336 362.273 185.123 363.05 185.123C363.534 185.123 364.099 185.178 364.744 185.288C365.397 185.398 365.873 185.515 366.174 185.64V188.544H364.766C364.465 187.869 364.113 187.378 363.71 187.07C363.314 186.755 362.881 186.597 362.412 186.597C361.994 186.597 361.609 186.718 361.257 186.96C360.912 187.195 360.637 187.521 360.432 187.939C360.234 188.357 360.135 188.823 360.135 189.336C360.135 189.959 360.234 190.528 360.432 191.041C360.63 191.547 360.934 191.954 361.345 192.262C361.756 192.57 362.262 192.724 362.863 192.724H363.204C363.49 192.724 363.714 192.717 363.875 192.702V190.821L362.071 190.414L362.511 189.534H367.285V190.315L366.24 191.228V191.954ZM371.718 189.732C371.512 189.732 371.314 189.798 371.124 189.93V192.691L372.884 193.12L372.444 194H367.945V193.219L368.924 192.361V190.216L367.945 189.578V188.797L370.486 187.818L370.926 188.962L371.861 188.005C371.993 187.946 372.158 187.917 372.356 187.917C372.832 187.917 373.232 188.016 373.555 188.214C373.877 188.412 374.097 188.687 374.215 189.039L372.972 190.601H372.114C372.114 190.286 372.084 190.062 372.026 189.93C371.967 189.798 371.864 189.732 371.718 189.732ZM381.025 194H378.275V193.043L377.032 194.022C376.885 194.081 376.702 194.11 376.482 194.11C375.734 194.11 375.191 193.93 374.854 193.571C374.524 193.204 374.359 192.764 374.359 192.251C374.359 191.958 374.443 191.672 374.612 191.393C374.78 191.107 375.026 190.843 375.349 190.601H378.275C378.253 190.278 378.143 190.036 377.945 189.875C377.747 189.706 377.497 189.622 377.197 189.622C376.691 189.622 375.95 189.776 374.975 190.084L374.645 189.336L376.152 188.126C376.555 187.987 377.039 187.917 377.604 187.917C378.513 187.917 379.221 188.119 379.727 188.522C380.233 188.918 380.486 189.501 380.486 190.271V192.735L381.465 193.12L381.025 194ZM377.153 192.295C377.475 192.295 377.849 192.17 378.275 191.921V191.492H376.603C376.566 191.558 376.54 191.617 376.526 191.668C376.511 191.712 376.504 191.771 376.504 191.844C376.504 191.983 376.559 192.093 376.669 192.174C376.786 192.255 376.951 192.295 377.164 192.295H377.153ZM389.389 193.989H386.639V190.59C386.639 190.275 386.591 190.051 386.496 189.919C386.408 189.787 386.25 189.721 386.023 189.721C385.708 189.721 385.4 189.798 385.099 189.952V192.812L386.089 193.12L385.649 194H381.92V193.219L382.899 192.361V190.216L381.92 189.578V188.797L384.461 187.818L384.923 189.006L386.166 188.005C386.364 187.946 386.602 187.917 386.881 187.917C387.482 187.917 387.959 188.071 388.311 188.379C388.663 188.68 388.839 189.09 388.839 189.611V192.812L389.829 193.109L389.389 193.989ZM397.474 194H394.724V193.164L393.657 194.022C393.423 194.081 393.155 194.11 392.854 194.11C392.37 194.11 391.934 193.985 391.545 193.736C391.164 193.479 390.863 193.131 390.643 192.691C390.431 192.244 390.324 191.749 390.324 191.206C390.324 190.619 390.519 190.073 390.907 189.567C391.296 189.061 391.784 188.661 392.37 188.368C392.957 188.067 393.525 187.917 394.075 187.917C394.303 187.917 394.519 187.968 394.724 188.071V186.795L393.745 186.157V185.376L396.066 184.397H396.924V192.812L397.914 193.12L397.474 194ZM393.613 192.306C394.009 192.306 394.383 192.225 394.735 192.064V190.216C394.691 189.974 394.559 189.776 394.339 189.622C394.119 189.468 393.819 189.391 393.437 189.391C392.902 189.391 392.634 189.824 392.634 190.689C392.634 191.166 392.715 191.554 392.876 191.855C393.038 192.156 393.28 192.306 393.602 192.306H393.613ZM402.261 187.917C403.075 187.917 403.705 188.221 404.153 188.83C404.6 189.439 404.813 190.304 404.791 191.426H400.908C400.996 191.763 401.142 192.031 401.348 192.229C401.553 192.42 401.813 192.515 402.129 192.515C402.649 192.515 403.427 192.324 404.461 191.943L404.791 192.691L403.284 193.901C402.785 194.04 402.187 194.11 401.491 194.11C400.919 194.11 400.405 193.985 399.951 193.736C399.503 193.479 399.151 193.131 398.895 192.691C398.645 192.244 398.521 191.749 398.521 191.206C398.521 190.619 398.715 190.073 399.104 189.567C399.492 189.061 399.98 188.661 400.567 188.368C401.153 188.067 401.722 187.917 402.272 187.917H402.261ZM401.678 189.391C401.406 189.391 401.201 189.486 401.062 189.677C400.922 189.86 400.845 190.146 400.831 190.535H402.646C402.609 190.146 402.514 189.86 402.36 189.677C402.206 189.486 401.975 189.391 401.667 189.391H401.678Z" fill="#18294d"/>
<path d="M413 158.5H428L420.5 172.5L413 158.5Z" fill="#ff0000"/>
<circle cx="420.5" cy="154.5" r="8.5" fill="#ff0000"/>
<path d="M425 154.5C425 156.985 422.985 159 420.5 159C418.015 159 416 156.985 416 154.5C416 152.015 418.015 150 420.5 150C422.985 150 425 152.015 425 154.5Z" fill="#5191c1"/>
</svg>
