<svg width="414" height="414" viewBox="0 0 414 414" fill="none" xmlns="http://www.w3.org/2000/svg">
<g clip-path="url(#clip0_77_443)">
<path d="M413.307 157.042C411.768 152.443 407.783 149.092 402.99 148.354L275.724 128.909L218.702 7.43906C216.567 2.898 212 0 206.987 0C201.973 0 197.413 2.898 195.272 7.43906L138.25 128.909L10.9835 148.361C6.19018 149.092 2.2119 152.449 0.665872 157.048C-0.873691 161.641 0.284216 166.713 3.67384 170.186L96.1382 264.999L74.2867 398.928C73.4846 403.818 75.5481 408.741 79.604 411.587C81.8293 413.159 84.4362 413.955 87.0496 413.955C89.1972 413.955 91.3578 413.411 93.3113 412.338L206.98 349.468L320.649 412.338C322.603 413.411 324.763 413.955 326.911 413.955C329.524 413.955 332.138 413.159 334.356 411.587C338.412 408.741 340.476 403.818 339.674 398.928L317.822 264.999L410.287 170.186C413.683 166.706 414.847 161.635 413.307 157.042Z" fill="#18294D" fill-opacity="0.08"/>
</g>
<defs>
<clipPath id="clip0_77_443">
<rect width="414" height="414" fill="white"/>
</clipPath>
</defs>
</svg>
